<svg xmlns="http://www.w3.org/2000/svg" xmlns:xlink="http://www.w3.org/1999/xlink" width="200" zoomAndPan="magnify" viewBox="0 0 150 809.999993" height="1080" preserveAspectRatio="xMidYMid meet" version="1.0"><defs><clipPath id="5e005b08ad"><path d="M 0 91 L 109 91 L 109 279 L 0 279 Z M 0 91 " clip-rule="nonzero"/></clipPath><clipPath id="0868e38e3d"><path d="M -49.859375 90.351562 L 109.6875 120.183594 L 79.859375 279.730469 L -79.6875 249.898438 Z M -49.859375 90.351562 " clip-rule="nonzero"/></clipPath><clipPath id="087f28664d"><path d="M -43.222656 91.59375 L 103.050781 118.941406 C 106.71875 119.628906 109.132812 123.152344 108.445312 126.816406 L 81.097656 273.09375 C 80.414062 276.757812 76.886719 279.175781 73.222656 278.488281 L -73.054688 251.140625 C -76.71875 250.457031 -79.132812 246.929688 -78.449219 243.265625 L -51.101562 96.988281 C -50.414062 93.324219 -46.890625 90.910156 -43.222656 91.59375 Z M -43.222656 91.59375 " clip-rule="nonzero"/></clipPath><clipPath id="116eb445c6"><path d="M 0 216 L 107 216 L 107 450 L 0 450 Z M 0 216 " clip-rule="nonzero"/></clipPath><clipPath id="8124650cf3"><path d="M -128.253906 324.082031 L -0.308594 214.085938 L 109.6875 342.027344 L -18.253906 452.023438 Z M -128.253906 324.082031 " clip-rule="nonzero"/></clipPath><clipPath id="6832478ed7"><path d="M -123.132812 319.683594 L -5.425781 218.484375 C -2.601562 216.054688 1.660156 216.375 4.089844 219.203125 L 105.289062 336.910156 C 107.71875 339.734375 107.398438 343.996094 104.570312 346.429688 L -13.136719 447.625 C -15.960938 450.054688 -20.222656 449.734375 -22.65625 446.90625 L -123.851562 329.199219 C -126.28125 326.375 -125.960938 322.113281 -123.132812 319.683594 Z M -123.132812 319.683594 " clip-rule="nonzero"/></clipPath><clipPath id="a72f39a462"><path d="M 0 335 L 91 335 L 91 533 L 0 533 Z M 0 335 " clip-rule="nonzero"/></clipPath><clipPath id="0cb91a72bc"><path d="M -54.234375 333.054688 L 93.359375 392.539062 L 36.113281 534.582031 L -111.480469 475.101562 Z M -54.234375 333.054688 " clip-rule="nonzero"/></clipPath><clipPath id="6868245f88"><path d="M -47.972656 335.578125 L 86.652344 389.835938 C 90.109375 391.226562 91.78125 395.160156 90.390625 398.617188 L 38.191406 528.140625 C 36.796875 531.597656 32.863281 533.273438 29.40625 531.878906 L -105.21875 477.625 C -108.675781 476.230469 -110.347656 472.296875 -108.957031 468.839844 L -56.757812 339.316406 C -55.363281 335.859375 -51.429688 334.1875 -47.972656 335.578125 Z M -47.972656 335.578125 " clip-rule="nonzero"/></clipPath><clipPath id="13f6d8e762"><path d="M 0 466 L 108 466 L 108 667 L 0 667 Z M 0 466 " clip-rule="nonzero"/></clipPath><clipPath id="e60b96bc0b"><path d="M -97.09375 528.414062 L 48.652344 464.535156 L 110.132812 604.796875 L -35.609375 668.679688 Z M -97.09375 528.414062 " clip-rule="nonzero"/></clipPath><clipPath id="37436dc2fb"><path d="M -90.910156 525.707031 L 42.027344 467.4375 C 45.441406 465.941406 49.421875 467.496094 50.917969 470.910156 L 106.980469 598.808594 C 108.476562 602.222656 106.921875 606.203125 103.507812 607.699219 L -29.429688 665.96875 C -32.84375 667.464844 -36.824219 665.910156 -38.320312 662.496094 L -94.382812 534.597656 C -95.878906 531.183594 -94.324219 527.203125 -90.910156 525.707031 Z M -90.910156 525.707031 " clip-rule="nonzero"/></clipPath><clipPath id="95c6cce5d9"><path d="M 0 561 L 98 561 L 98 776 L 0 776 Z M 0 561 " clip-rule="nonzero"/></clipPath><clipPath id="ef2ef1e2aa"><path d="M 100.015625 654.265625 L 0.960938 778.804688 L -118.898438 683.472656 L -19.84375 558.933594 Z M 100.015625 654.265625 " clip-rule="nonzero"/></clipPath><clipPath id="0d556b0b03"><path d="M 95.8125 659.546875 L 5.460938 773.144531 C 3.140625 776.0625 -1.105469 776.546875 -4.023438 774.226562 L -113.316406 687.296875 C -116.230469 684.976562 -116.714844 680.730469 -114.394531 677.8125 L -24.046875 564.21875 C -21.722656 561.300781 -17.476562 560.816406 -14.5625 563.136719 L 94.730469 650.0625 C 97.648438 652.382812 98.132812 656.628906 95.8125 659.546875 Z M 95.8125 659.546875 " clip-rule="nonzero"/></clipPath><clipPath id="6031b52dff"><path d="M 0 0 L 118 0 L 118 140 L 0 140 Z M 0 0 " clip-rule="nonzero"/></clipPath><clipPath id="76295cb5db"><path d="M 67.339844 141.433594 L -42.78125 88.957031 L 9.695312 -21.164062 L 119.816406 31.3125 Z M 67.339844 141.433594 " clip-rule="nonzero"/></clipPath><clipPath id="703905381e"><path d="M 61.246094 138.53125 L -36.6875 91.859375 C -38.304688 91.089844 -39.546875 89.707031 -40.144531 88.019531 C -40.742188 86.332031 -40.648438 84.476562 -39.878906 82.863281 L 6.792969 -15.070312 C 7.5625 -16.6875 8.945312 -17.933594 10.632812 -18.53125 C 12.320312 -19.128906 14.175781 -19.03125 15.789062 -18.261719 L 113.722656 28.410156 C 115.339844 29.179688 116.585938 30.558594 117.183594 32.246094 C 117.78125 33.933594 117.683594 35.789062 116.914062 37.40625 L 70.242188 135.339844 C 69.472656 136.957031 68.09375 138.199219 66.40625 138.796875 C 64.71875 139.394531 62.863281 139.300781 61.246094 138.53125 Z M 61.246094 138.53125 " clip-rule="nonzero"/></clipPath><clipPath id="f8a4afa1a9"><path d="M 0 683 L 118 683 L 118 810 L 0 810 Z M 0 683 " clip-rule="nonzero"/></clipPath><clipPath id="20207c9e11"><path d="M 67.339844 844.023438 L -42.78125 791.546875 L 9.695312 681.425781 L 119.816406 733.902344 Z M 67.339844 844.023438 " clip-rule="nonzero"/></clipPath><clipPath id="2fd95e97ad"><path d="M 61.246094 841.121094 L -36.6875 794.449219 C -38.304688 793.679688 -39.546875 792.300781 -40.144531 790.613281 C -40.742188 788.925781 -40.648438 787.070312 -39.878906 785.453125 L 6.792969 687.519531 C 7.5625 685.902344 8.945312 684.660156 10.632812 684.0625 C 12.320312 683.460938 14.175781 683.558594 15.789062 684.328125 L 113.722656 731 C 115.339844 731.769531 116.585938 733.152344 117.183594 734.839844 C 117.78125 736.523438 117.683594 738.382812 116.914062 739.996094 L 70.242188 837.929688 C 69.472656 839.546875 68.09375 840.792969 66.40625 841.390625 C 64.71875 841.988281 62.863281 841.890625 61.246094 841.121094 Z M 61.246094 841.121094 " clip-rule="nonzero"/></clipPath></defs><rect x="-15" width="180" fill="#ffffff" y="-80.999999" height="971.999992" fill-opacity="1"/><rect x="-15" width="180" fill="#181818" y="-80.999999" height="971.999992" fill-opacity="1"/><g clip-path="url(#5e005b08ad)"><g clip-path="url(#0868e38e3d)"><g clip-path="url(#087f28664d)"><path fill="#868686" d="M -49.859375 90.351562 L 109.6875 120.183594 L 79.859375 279.730469 L -79.6875 249.898438 Z M -49.859375 90.351562 " fill-opacity="1" fill-rule="nonzero"/></g></g></g><g clip-path="url(#116eb445c6)"><g clip-path="url(#8124650cf3)"><g clip-path="url(#6832478ed7)"><path fill="#868686" d="M -128.253906 324.082031 L -0.308594 214.085938 L 109.6875 342.027344 L -18.253906 452.023438 Z M -128.253906 324.082031 " fill-opacity="1" fill-rule="nonzero"/></g></g></g><g clip-path="url(#a72f39a462)"><g clip-path="url(#0cb91a72bc)"><g clip-path="url(#6868245f88)"><path fill="#868686" d="M -54.234375 333.054688 L 92.804688 392.3125 L 35.558594 534.359375 L -111.480469 475.101562 Z M -54.234375 333.054688 " fill-opacity="1" fill-rule="nonzero"/></g></g></g><g clip-path="url(#13f6d8e762)"><g clip-path="url(#e60b96bc0b)"><g clip-path="url(#37436dc2fb)"><path fill="#868686" d="M -97.09375 528.414062 L 48.101562 464.773438 L 109.582031 605.039062 L -35.609375 668.679688 Z M -97.09375 528.414062 " fill-opacity="1" fill-rule="nonzero"/></g></g></g><g clip-path="url(#95c6cce5d9)"><g clip-path="url(#ef2ef1e2aa)"><g clip-path="url(#0d556b0b03)"><path fill="#868686" d="M 100.015625 654.265625 L 1.332031 778.335938 L -118.527344 683.007812 L -19.84375 558.933594 Z M 100.015625 654.265625 " fill-opacity="1" fill-rule="nonzero"/></g></g></g><g clip-path="url(#6031b52dff)"><g clip-path="url(#76295cb5db)"><g clip-path="url(#703905381e)"><path fill="#868686" d="M 67.339844 141.433594 L -42.78125 88.957031 L 9.695312 -21.164062 L 119.816406 31.3125 Z M 67.339844 141.433594 " fill-opacity="1" fill-rule="nonzero"/></g></g></g><g clip-path="url(#f8a4afa1a9)"><g clip-path="url(#20207c9e11)"><g clip-path="url(#2fd95e97ad)"><path fill="#868686" d="M 67.339844 844.023438 L -42.78125 791.546875 L 9.695312 681.425781 L 119.816406 733.902344 Z M 67.339844 844.023438 " fill-opacity="1" fill-rule="nonzero"/></g></g></g></svg>