<svg xmlns="http://www.w3.org/2000/svg" xmlns:xlink="http://www.w3.org/1999/xlink" width="200" zoomAndPan="magnify" viewBox="0 0 150 809.999993" height="1080" preserveAspectRatio="xMidYMid meet" version="1.0"><defs><clipPath id="9848df944e"><path d="M 54 199 L 150 199 L 150 379 L 54 379 Z M 54 199 " clip-rule="nonzero"/></clipPath><clipPath id="0137a72c4f"><path d="M 53.699219 217.515625 L 214.941406 198.902344 L 233.558594 360.140625 L 72.316406 378.757812 Z M 53.699219 217.515625 " clip-rule="nonzero"/></clipPath><clipPath id="bdfa20c1c4"><path d="M 60.40625 216.742188 L 208.234375 199.675781 C 211.9375 199.246094 215.289062 201.902344 215.714844 205.605469 L 232.78125 353.433594 C 233.210938 357.140625 230.554688 360.488281 226.851562 360.914062 L 79.023438 377.980469 C 75.320312 378.410156 71.96875 375.753906 71.542969 372.050781 L 54.476562 224.222656 C 54.046875 220.519531 56.703125 217.167969 60.40625 216.742188 Z M 60.40625 216.742188 " clip-rule="nonzero"/></clipPath><clipPath id="84aabe7125"><path d="M 33 232 L 150 232 L 150 466 L 33 466 Z M 33 232 " clip-rule="nonzero"/></clipPath><clipPath id="a517baf8dc"><path d="M 31.03125 339.972656 L 158.972656 229.976562 L 268.96875 357.917969 L 141.027344 467.914062 Z M 31.03125 339.972656 " clip-rule="nonzero"/></clipPath><clipPath id="afd8a35bf7"><path d="M 36.148438 335.574219 L 153.855469 234.375 C 156.679688 231.945312 160.941406 232.265625 163.375 235.09375 L 264.570312 352.800781 C 267 355.625 266.679688 359.886719 263.851562 362.320312 L 146.144531 463.515625 C 143.320312 465.945312 139.058594 465.625 136.628906 462.796875 L 35.429688 345.089844 C 33 342.265625 33.320312 338.003906 36.148438 335.574219 Z M 36.148438 335.574219 " clip-rule="nonzero"/></clipPath><clipPath id="500c453f74"><path d="M 29 381 L 150 381 L 150 587 L 29 587 Z M 29 381 " clip-rule="nonzero"/></clipPath><clipPath id="a42cf051f6"><path d="M 27.195312 453.441406 L 167.585938 378.527344 L 239.683594 513.640625 L 99.292969 588.554688 Z M 27.195312 453.441406 " clip-rule="nonzero"/></clipPath><clipPath id="f4b8b07d4f"><path d="M 33.148438 450.265625 L 161.203125 381.933594 C 164.492188 380.175781 168.582031 381.421875 170.335938 384.710938 L 236.082031 507.914062 C 237.835938 511.203125 236.59375 515.289062 233.304688 517.046875 L 105.25 585.378906 C 101.960938 587.132812 97.871094 585.890625 96.117188 582.601562 L 30.371094 459.398438 C 28.617188 456.109375 29.859375 452.019531 33.148438 450.265625 Z M 33.148438 450.265625 " clip-rule="nonzero"/></clipPath><clipPath id="36bc9bfcae"><path d="M 67 499 L 150 499 L 150 709 L 67 709 Z M 67 499 " clip-rule="nonzero"/></clipPath><clipPath id="da7984f4ba"><path d="M 65.351562 580.320312 L 200.75 496.71875 L 281.207031 627.03125 L 145.804688 710.628906 Z M 65.351562 580.320312 " clip-rule="nonzero"/></clipPath><clipPath id="6917bf53dc"><path d="M 71.09375 576.773438 L 194.597656 500.519531 C 197.769531 498.5625 201.925781 499.546875 203.886719 502.71875 L 277.25 621.539062 C 279.207031 624.710938 278.222656 628.871094 275.050781 630.832031 L 151.550781 707.082031 C 148.378906 709.042969 144.21875 708.058594 142.261719 704.886719 L 68.894531 586.0625 C 66.9375 582.890625 67.921875 578.730469 71.09375 576.773438 Z M 71.09375 576.773438 " clip-rule="nonzero"/></clipPath><clipPath id="9c93e28801"><path d="M 52 601 L 150 601 L 150 810 L 52 810 Z M 52 601 " clip-rule="nonzero"/></clipPath><clipPath id="e925d81306"><path d="M 264.75 731.257812 L 127.820312 812.324219 L 49.800781 680.542969 L 186.730469 599.476562 Z M 264.75 731.257812 " clip-rule="nonzero"/></clipPath><clipPath id="09a31080b5"><path d="M 258.941406 734.695312 L 134.042969 808.640625 C 130.835938 810.539062 126.695312 809.480469 124.796875 806.269531 L 53.652344 686.105469 C 51.753906 682.898438 52.816406 678.757812 56.023438 676.859375 L 180.921875 602.914062 C 184.128906 601.015625 188.269531 602.074219 190.167969 605.285156 L 261.3125 725.449219 C 263.210938 728.65625 262.148438 732.796875 258.941406 734.695312 Z M 258.941406 734.695312 " clip-rule="nonzero"/></clipPath><clipPath id="8679423212"><path d="M 55 0 L 150 0 L 150 134 L 55 134 Z M 55 0 " clip-rule="nonzero"/></clipPath><clipPath id="a008ddad3e"><path d="M 163.816406 135.675781 L 53.695312 83.199219 L 106.175781 -26.921875 L 216.296875 25.554688 Z M 163.816406 135.675781 " clip-rule="nonzero"/></clipPath><clipPath id="45e067911b"><path d="M 157.722656 132.773438 L 59.789062 86.101562 C 58.175781 85.332031 56.929688 83.953125 56.332031 82.265625 C 55.734375 80.578125 55.832031 78.722656 56.601562 77.105469 L 103.269531 -20.828125 C 104.042969 -22.445312 105.421875 -23.6875 107.109375 -24.285156 C 108.796875 -24.882812 110.652344 -24.789062 112.269531 -24.019531 L 210.203125 22.652344 C 211.816406 23.421875 213.0625 24.804688 213.660156 26.492188 C 214.257812 28.179688 214.160156 30.035156 213.390625 31.648438 L 166.722656 129.582031 C 165.949219 131.199219 164.570312 132.445312 162.882812 133.042969 C 161.195312 133.640625 159.339844 133.542969 157.722656 132.773438 Z M 157.722656 132.773438 " clip-rule="nonzero"/></clipPath><clipPath id="3d78c48fa2"><path d="M 54 715 L 150 715 L 150 810 L 54 810 Z M 54 715 " clip-rule="nonzero"/></clipPath><clipPath id="ff1bbdc16a"><path d="M 162.042969 876.292969 L 51.921875 823.816406 L 104.398438 713.695312 L 214.519531 766.171875 Z M 162.042969 876.292969 " clip-rule="nonzero"/></clipPath><clipPath id="8592308a4a"><path d="M 155.949219 873.390625 L 58.015625 826.71875 C 56.398438 825.949219 55.15625 824.566406 54.558594 822.882812 C 53.960938 821.195312 54.054688 819.335938 54.824219 817.722656 L 101.496094 719.789062 C 102.265625 718.171875 103.648438 716.929688 105.335938 716.328125 C 107.023438 715.730469 108.878906 715.828125 110.492188 716.597656 L 208.425781 763.269531 C 210.042969 764.039062 211.289062 765.417969 211.886719 767.105469 C 212.484375 768.792969 212.386719 770.648438 211.617188 772.265625 L 164.945312 870.199219 C 164.175781 871.816406 162.796875 873.058594 161.109375 873.65625 C 159.421875 874.257812 157.566406 874.160156 155.949219 873.390625 Z M 155.949219 873.390625 " clip-rule="nonzero"/></clipPath><clipPath id="d667e0588e"><path d="M 41 42 L 150 42 L 150 275 L 41 275 Z M 41 42 " clip-rule="nonzero"/></clipPath><clipPath id="966c534e54"><path d="M 38.523438 149.675781 L 166.464844 39.679688 L 276.460938 167.621094 L 148.519531 277.617188 Z M 38.523438 149.675781 " clip-rule="nonzero"/></clipPath><clipPath id="70a4e6b43c"><path d="M 43.640625 145.273438 L 161.347656 44.078125 C 164.171875 41.648438 168.433594 41.96875 170.867188 44.796875 L 272.0625 162.503906 C 274.492188 165.328125 274.171875 169.589844 271.34375 172.019531 L 153.636719 273.21875 C 150.8125 275.648438 146.550781 275.328125 144.121094 272.5 L 42.921875 154.792969 C 40.492188 151.96875 40.8125 147.707031 43.640625 145.273438 Z M 43.640625 145.273438 " clip-rule="nonzero"/></clipPath></defs><rect x="-15" width="180" fill="#ffffff" y="-80.999999" height="971.999992" fill-opacity="1"/><rect x="-15" width="180" fill="#181818" y="-80.999999" height="971.999992" fill-opacity="1"/><g clip-path="url(#9848df944e)"><g clip-path="url(#0137a72c4f)"><g clip-path="url(#bdfa20c1c4)"><path fill="#868686" d="M 53.699219 217.515625 L 214.941406 198.898438 L 233.558594 360.140625 L 72.316406 378.757812 Z M 53.699219 217.515625 " fill-opacity="1" fill-rule="nonzero"/></g></g></g><g clip-path="url(#84aabe7125)"><g clip-path="url(#a517baf8dc)"><g clip-path="url(#afd8a35bf7)"><path fill="#868686" d="M 31.03125 339.972656 L 158.972656 229.976562 L 268.96875 357.917969 L 141.027344 467.914062 Z M 31.03125 339.972656 " fill-opacity="1" fill-rule="nonzero"/></g></g></g><g clip-path="url(#500c453f74)"><g clip-path="url(#a42cf051f6)"><g clip-path="url(#f4b8b07d4f)"><path fill="#868686" d="M 27.195312 453.441406 L 167.058594 378.808594 L 239.15625 513.921875 L 99.292969 588.554688 Z M 27.195312 453.441406 " fill-opacity="1" fill-rule="nonzero"/></g></g></g><g clip-path="url(#36bc9bfcae)"><g clip-path="url(#da7984f4ba)"><g clip-path="url(#6917bf53dc)"><path fill="#868686" d="M 65.351562 580.320312 L 200.242188 497.035156 L 280.699219 627.34375 L 145.804688 710.628906 Z M 65.351562 580.320312 " fill-opacity="1" fill-rule="nonzero"/></g></g></g><g clip-path="url(#9c93e28801)"><g clip-path="url(#e925d81306)"><g clip-path="url(#09a31080b5)"><path fill="#868686" d="M 264.75 731.257812 L 128.332031 812.019531 L 50.3125 680.238281 L 186.730469 599.476562 Z M 264.75 731.257812 " fill-opacity="1" fill-rule="nonzero"/></g></g></g><g clip-path="url(#8679423212)"><g clip-path="url(#a008ddad3e)"><g clip-path="url(#45e067911b)"><path fill="#868686" d="M 163.816406 135.675781 L 53.695312 83.199219 L 106.175781 -26.921875 L 216.296875 25.554688 Z M 163.816406 135.675781 " fill-opacity="1" fill-rule="nonzero"/></g></g></g><g clip-path="url(#3d78c48fa2)"><g clip-path="url(#ff1bbdc16a)"><g clip-path="url(#8592308a4a)"><path fill="#868686" d="M 162.042969 876.292969 L 51.921875 823.816406 L 104.398438 713.695312 L 214.519531 766.171875 Z M 162.042969 876.292969 " fill-opacity="1" fill-rule="nonzero"/></g></g></g><g clip-path="url(#d667e0588e)"><g clip-path="url(#966c534e54)"><g clip-path="url(#70a4e6b43c)"><path fill="#868686" d="M 38.523438 149.675781 L 166.464844 39.679688 L 276.460938 167.621094 L 148.519531 277.617188 Z M 38.523438 149.675781 " fill-opacity="1" fill-rule="nonzero"/></g></g></g></svg>